<svg width="408" height="191" viewBox="0 0 408 191" fill="none" xmlns="http://www.w3.org/2000/svg">
<path d="M338.529 117.879C340.58 106.651 330.557 102.479 323.06 90.9356C312.061 73.9998 299.234 74.9956 294.788 83.7C290.344 92.4046 299.062 101.69 296.795 111.52C296.788 111.55 296.781 111.58 296.775 111.611C296.769 111.641 296.764 111.672 296.758 111.703C294.882 121.591 282.915 127.77 283.544 137.236C284.173 146.703 295.81 151.372 313.033 138.673C324.773 130.017 335.883 129.018 338.529 117.879Z" fill="#0D2347"/>
<path d="M352.567 92.1458C342.683 97.0426 332.341 96.0781 329.467 89.9912C326.594 83.9047 332.276 75.0001 342.16 70.1033C352.044 65.2065 362.386 66.1714 365.26 72.2579C368.134 78.345 362.451 87.2485 352.567 92.1458Z" fill="#0D2347"/>
<path d="M341.228 146.127C333.942 138.652 323.839 136.547 318.662 141.425C313.485 146.304 315.194 156.318 322.48 163.791C329.766 171.266 339.868 173.371 345.046 168.493C350.223 163.615 348.513 153.601 341.228 146.127Z" fill="#0D2347"/>
<path d="M369.103 119.481C357.673 119.771 348.581 114.145 348.793 106.917C349.006 99.6888 358.445 93.5935 369.875 93.3041C381.305 93.0144 390.397 98.6397 390.185 105.868C389.972 113.097 380.533 119.191 369.103 119.481Z" fill="#0D2347"/>
<path d="M367.886 125.276C357.273 121.677 346.445 124.311 343.701 131.16C340.957 138.009 347.337 146.478 357.95 150.077C368.563 153.676 379.391 151.042 382.135 144.193C384.878 137.345 378.499 128.875 367.886 125.276Z" fill="#0D2347"/>
<path d="M207.475 63.4561C200.243 54.7241 190.316 59.3157 176.432 57.3173C156.064 54.3842 148.217 64.3469 151.909 73.1907C155.6 82.0346 168.571 81.6893 174.587 89.6755C174.605 89.7008 174.624 89.7254 174.643 89.7501C174.662 89.7736 174.682 89.7978 174.702 89.8214C181.024 97.5619 177.731 110.242 185.411 115.891C193.092 121.541 204.483 116.097 206.306 95.392C207.548 81.2802 214.24 72.5636 207.475 63.4561Z" fill="#0D2347"/>
<path d="M197.165 36.6592C194.286 46.999 186.604 53.8909 180.008 52.0534C173.412 50.2152 170.399 40.3435 173.278 30.0031C176.158 19.6632 183.84 12.7713 190.436 14.6097C197.032 16.4472 200.045 26.3195 197.165 36.6592Z" fill="#0D2347"/>
<path d="M230.945 79.7142C220.323 80.1864 211.929 86.1691 212.195 93.0767C212.46 99.9847 221.285 105.202 231.907 104.729C242.528 104.257 250.923 98.2746 250.657 91.3664C250.392 84.4588 241.566 79.242 230.945 79.7142Z" fill="#0D2347"/>
<path d="M229.226 42.2752C221.776 50.7667 211.36 53.7443 205.96 48.9277C200.56 44.1106 202.222 33.3215 209.672 24.83C217.122 16.3385 227.538 13.3607 232.938 18.1774C238.338 22.9952 236.676 33.7835 229.226 42.2752Z" fill="#0D2347"/>
<path d="M232.852 46.8967C222.969 52.2863 217.721 61.8531 221.131 68.2639C224.541 74.6746 235.318 75.5026 245.2 70.1126C255.083 64.7228 260.331 55.1568 256.921 48.7455C253.511 42.3346 242.735 41.5075 232.852 46.8967Z" fill="#0D2347"/>
<path d="M59.2545 118.382C50.275 111.464 41.5504 118.038 27.5197 119.071C6.93477 120.586 1.41432 131.922 6.94918 139.706C12.484 147.49 25.1125 144.38 32.7381 150.835C32.762 150.856 32.7853 150.875 32.8091 150.896C32.8338 150.915 32.858 150.933 32.8826 150.953C40.7557 157.104 40.2827 170.101 49.0315 173.934C57.7798 177.767 67.7533 170.053 65.0432 149.591C63.1962 135.644 67.8563 125.764 59.2545 118.382Z" fill="#0D2347"/>
<path d="M43.3385 94.61C42.7631 105.249 36.7369 113.574 29.878 113.203C23.0191 112.833 17.9252 103.906 18.4999 93.2674C19.0753 82.6283 25.1016 74.3035 31.9598 74.6743C38.8188 75.0446 43.9133 83.9709 43.3385 94.61Z" fill="#0D2347"/>
<path d="M85.7684 129.122C75.4687 131.852 68.5463 139.448 70.3061 146.087C72.0665 152.726 81.8423 155.896 92.1414 153.165C102.44 150.435 109.363 142.84 107.603 136.2C105.843 129.561 96.0675 126.392 85.7684 129.122Z" fill="#0D2347"/>
<path d="M75.9559 93.1956C70.5035 103.02 60.9496 108.136 54.6147 104.621C48.2812 101.106 47.5653 90.2922 53.0179 80.4667C58.4704 70.6411 68.0243 65.5256 74.3584 69.0408C80.6926 72.5559 81.4078 83.3699 75.9559 93.1956Z" fill="#0D2347"/>
<path d="M80.5111 96.9C72.002 104.239 68.9397 114.635 73.6712 120.121C78.4026 125.606 89.1356 124.104 97.644 116.764C106.153 109.425 109.215 99.0291 104.484 93.5438C99.7531 88.0585 89.0195 89.5608 80.5111 96.9Z" fill="#0D2347"/>
</svg>
